<?xml version="1.0" standalone="no"?>
<!DOCTYPE svg PUBLIC "-//W3C//DTD SVG 20010904//EN"
 "http://www.w3.org/TR/2001/REC-SVG-20010904/DTD/svg10.dtd">
<svg version="1.0" xmlns="http://www.w3.org/2000/svg"
 width="152.000000pt" height="152.000000pt" viewBox="0 0 152.000000 152.000000"
 preserveAspectRatio="xMidYMid meet">
<metadata>
Created by potrace 1.11, written by Peter Selinger 2001-2013
</metadata>
<g transform="translate(0.000000,152.000000) scale(0.100000,-0.100000)"
fill="#000000" stroke="none">
<path d="M463 1486 c-8 -27 -7 -37 8 -57 21 -27 26 -50 7 -31 -19 19 -35 14
-33 -10 1 -13 3 -33 4 -45 1 -13 21 -37 52 -62 58 -46 57 -51 -1 -21 -45 23
-45 22 -26 -24 l14 -34 -56 20 c-32 11 -67 21 -79 24 -12 2 -34 9 -49 14 -33
13 -201 2 -235 -16 -14 -7 -31 -19 -37 -27 -10 -12 1 -14 78 -12 96 2 98 -1
36 -34 l-39 -20 29 -11 c16 -6 53 -20 83 -32 51 -20 56 -21 117 -6 35 8 61 11
58 7 -3 -5 -9 -9 -14 -9 -5 0 -23 -8 -40 -19 l-31 -19 50 -18 c28 -10 48 -21
44 -25 -5 -4 -37 -17 -73 -29 -75 -25 -92 -34 -128 -63 -78 -65 -108 -99 -118
-131 -13 -43 -9 -44 30 -11 16 14 32 25 35 25 3 0 21 14 39 31 37 35 41 25 11
-32 -19 -38 -19 -40 -2 -35 10 3 44 12 76 20 68 18 74 21 105 58 61 72 63 73
36 25 -14 -27 -24 -50 -22 -52 2 -2 36 4 75 14 l72 19 11 -34 c8 -24 20 -36
45 -44 29 -10 33 -14 26 -33 -6 -15 -3 -26 8 -35 14 -12 14 -13 -5 -9 -19 4
-23 -5 -43 -87 -13 -50 -21 -98 -19 -106 2 -8 -2 -14 -9 -13 -16 3 -73 -178
-60 -194 10 -14 0 -36 -13 -28 -5 3 -13 -9 -19 -27 -17 -55 -52 -200 -49 -203
2 -2 46 -11 98 -20 51 -9 96 -17 99 -17 3 -1 41 2 84 6 78 8 95 19 91 56 -1 8
-2 54 -3 102 -1 81 -2 87 -21 83 -13 -3 -20 2 -20 12 0 8 9 17 20 20 18 5 20
14 20 94 0 104 0 105 -18 101 -10 -2 -11 1 -3 17 6 11 12 59 13 108 2 52 8 93
15 101 7 7 10 19 7 26 -5 13 9 28 31 32 6 1 17 5 26 9 11 4 26 -2 41 -17 78
-75 84 -78 86 -60 0 9 5 37 11 62 9 48 9 48 15 -58 2 -37 10 -50 61 -102 32
-32 62 -57 66 -55 4 3 10 29 14 58 l8 52 13 -30 c7 -16 22 -59 32 -95 l19 -65
17 55 c17 54 17 57 -7 147 -26 94 -35 110 -134 221 -23 26 -37 49 -32 53 5 3
33 7 61 8 29 1 55 4 58 7 2 3 -11 18 -29 35 -42 36 -33 37 27 2 40 -23 55 -27
116 -25 108 4 113 7 68 49 -20 19 -30 33 -21 30 59 -20 153 -47 161 -47 5 0
-6 15 -24 34 -49 50 -179 94 -281 95 -71 1 -117 14 -117 33 0 5 31 8 70 8 70
0 140 22 140 44 0 6 -11 24 -25 40 -14 16 -25 32 -25 36 0 4 28 3 63 -2 34 -4
80 -10 102 -13 l40 -5 -54 50 -54 50 -103 0 c-103 0 -104 0 -212 -50 -60 -27
-112 -50 -116 -50 -5 0 -21 -9 -38 -21 -16 -12 -30 -20 -32 -18 -1 2 -10 23
-21 47 -16 37 -35 56 -35 34 0 -4 -8 -12 -19 -19 -18 -11 -18 -10 -8 22 9 29
6 39 -19 79 -16 25 -32 46 -35 46 -4 0 -10 -11 -13 -25 -9 -34 -22 -24 -30 22
-4 28 -13 41 -33 51 -36 16 -44 15 -36 -5 6 -16 5 -17 -13 -3 -10 8 -21 18
-24 22 -3 4 -22 10 -41 12 -33 4 -37 2 -46 -28z"/>
</g>
</svg>
